<svg width="584" height="325" viewBox="0 0 584 325" fill="none" xmlns="http://www.w3.org/2000/svg">
<g id="Group 1">
<path id="Vector" d="M543.532 4.75117H338.775V3.67903C338.775 2.84412 338.444 2.04339 337.853 1.45302C337.263 0.862644 336.462 0.53096 335.627 0.53096H249.079C248.244 0.530973 247.443 0.862646 246.853 1.45302C246.263 2.04339 245.931 2.84413 245.931 3.67903V4.75117H40.3301C36.6568 4.75117 33.1339 6.2104 30.5365 8.80782C27.9391 11.4052 26.4799 14.9281 26.4799 18.6014V298.976C26.4799 302.65 27.9391 306.172 30.5365 308.77C33.1339 311.367 36.6568 312.827 40.3301 312.827H543.532C547.205 312.827 550.728 311.367 553.326 308.77C555.923 306.172 557.382 302.65 557.382 298.976V18.6014C557.382 14.9281 555.923 11.4052 553.326 8.80782C550.728 6.2104 547.205 4.75117 543.532 4.75117Z" fill="#091F31"/>
<path id="Vector_2" d="M51.3448 34.2283C51.0012 34.2287 50.6718 34.3655 50.4288 34.6085C50.1859 34.8516 50.0493 35.181 50.0489 35.5246V301.467C50.0493 301.81 50.1859 302.139 50.4289 302.382C50.6718 302.625 51.0012 302.762 51.3448 302.762H532.517C532.861 302.762 533.19 302.626 533.433 302.383C533.676 302.14 533.813 301.81 533.813 301.467V35.5246C533.813 35.181 533.676 34.8515 533.433 34.6084C533.19 34.3654 532.861 34.2287 532.517 34.2283H51.3448Z" fill="#2196F3"/>
<path id="Vector_3" d="M291.509 21.632C294.306 21.632 296.573 19.3647 296.573 16.5678C296.573 13.7709 294.306 11.5035 291.509 11.5035C288.712 11.5035 286.445 13.7709 286.445 16.5678C286.445 19.3647 288.712 21.632 291.509 21.632Z" fill="#2196F3"/>
<path id="Vector_4" d="M566.604 294.93H518.416V289.954C518.416 289.68 518.107 289.459 517.727 289.459H501.206C500.825 289.459 500.517 289.68 500.517 289.954V294.93H490.191V289.954C490.191 289.68 489.883 289.459 489.503 289.459H472.981C472.601 289.459 472.293 289.68 472.293 289.954V294.93H461.967V289.954C461.967 289.68 461.658 289.459 461.278 289.459H444.757C444.376 289.459 444.068 289.68 444.068 289.954V294.93H433.742V289.954C433.742 289.68 433.434 289.459 433.054 289.459H416.532C416.152 289.459 415.844 289.68 415.844 289.954V294.93H405.518V289.954C405.518 289.68 405.209 289.459 404.829 289.459H388.307C387.927 289.459 387.619 289.68 387.619 289.954V294.93H377.293V289.954C377.293 289.68 376.985 289.459 376.605 289.459H360.083C359.703 289.459 359.395 289.68 359.395 289.954V294.93H349.069V289.954C349.069 289.68 348.76 289.459 348.38 289.459H218.96C218.58 289.459 218.272 289.68 218.272 289.954V294.93H207.946V289.954C207.946 289.68 207.638 289.459 207.258 289.459H190.736C190.356 289.459 190.047 289.68 190.047 289.954V294.93H179.721V289.954C179.721 289.68 179.413 289.459 179.033 289.459H162.511C162.131 289.459 161.823 289.68 161.823 289.954V294.93H151.497V289.954C151.497 289.68 151.189 289.459 150.808 289.459H134.287C133.907 289.459 133.598 289.68 133.598 289.954V294.93H123.272V289.954C123.272 289.68 122.964 289.459 122.584 289.459H106.062C105.682 289.459 105.374 289.68 105.374 289.954V294.93H95.0478V289.954C95.0478 289.68 94.7396 289.459 94.3594 289.459H77.8377C77.4575 289.459 77.1493 289.68 77.1493 289.954V294.93H66.8232V289.954C66.8232 289.68 66.5151 289.459 66.1349 289.459H49.6132C49.233 289.459 48.9248 289.68 48.9248 289.954V294.93H17.2582C8.13358 294.93 0.736572 300.248 0.736572 306.807V312.177C0.736572 318.737 8.13357 324.054 17.2582 324.054H566.604C575.729 324.054 583.126 318.737 583.126 312.177V306.807C583.126 300.248 575.729 294.93 566.604 294.93Z" fill="#091F31"/>
<path id="Vector_5" d="M314.413 162.653V93H268.587V162.653H232L261.749 204.828L291.502 247L321.251 204.828L351 162.653H314.413Z" fill="white"/>
</g>
</svg>
