<svg width="36" height="35" viewBox="0 0 36 35" fill="none" xmlns="http://www.w3.org/2000/svg">
<g id="fa-brands:ubuntu">
<g clip-path="url(#clip0)">
<path id="Vector" d="M17.7529 0.546875C8.01215 0.546875 0.119995 8.37954 0.119995 18.0469C0.119995 27.7142 8.01215 35.5469 17.7529 35.5469C27.4937 35.5469 35.3858 27.7142 35.3858 18.0469C35.3858 8.37954 27.4937 0.546875 17.7529 0.546875ZM21.4999 7.10938C22.1256 6.03679 23.512 5.6628 24.5928 6.28377C25.6806 6.90474 26.0503 8.28075 25.4246 9.36038C24.799 10.433 23.4125 10.807 22.3318 10.186C21.2439 9.55796 20.8742 8.18196 21.4999 7.10938ZM6.33417 20.2979C5.08281 20.2979 4.06607 19.2888 4.06607 18.0469C4.06607 16.8049 5.08281 15.7959 6.33417 15.7959C7.58554 15.7959 8.60228 16.8049 8.60228 18.0469C8.60228 19.2888 7.58554 20.2979 6.33417 20.2979ZM8.3321 20.5166C9.91764 19.2535 9.92475 16.8543 8.3321 15.5842C8.94356 13.2697 10.4011 11.3009 12.3493 10.0025L14.0344 12.7969C10.3727 15.3584 10.3727 20.7354 14.0344 23.2969L12.3493 26.0912C10.4011 24.7999 8.95067 22.8241 8.3321 20.5166ZM24.5928 29.81C23.5049 30.4309 22.1256 30.064 21.4999 28.9844C20.8742 27.9047 21.2439 26.5287 22.3318 25.9078C23.4125 25.2868 24.799 25.6537 25.4246 26.7334C26.0503 27.813 25.6806 29.189 24.5928 29.81ZM24.6141 24.9057C22.7157 24.1789 20.6254 25.3715 20.3125 27.3755C19.9428 27.4743 16.8357 28.3846 13.4371 26.7122L15.0369 23.8684C19.0896 25.7384 23.8107 23.0428 24.2017 18.6184L27.4794 18.6678C27.3159 21.1023 26.2494 23.2898 24.6141 24.9057ZM24.1946 17.4753C23.8107 13.1003 19.1251 10.3342 15.0298 12.2253L13.43 9.38155C16.8357 7.70917 19.9357 8.61946 20.3054 8.71825C20.6183 10.7152 22.7086 11.9148 24.607 11.188C26.2494 12.8039 27.3088 14.9914 27.4652 17.433L24.1946 17.4753Z" fill="#319AEE"/>
</g>
</g>
<defs>
<clipPath id="clip0">
<rect x="0.119995" width="35.2658" height="35" fill="white"/>
</clipPath>
</defs>
</svg>
