<svg width="792" height="630" viewBox="0 0 792 630" fill="none" xmlns="http://www.w3.org/2000/svg">
<g id="window">
<g id="Vector" filter="url(#filter0_d)">
<path d="M762 10H10V600H762V10Z" fill="#2196F3"/>
</g>
<path id="Vector_2" d="M377.445 90.6292H191.927C191.631 90.6298 191.338 90.572 191.064 90.4591C190.79 90.3463 190.541 90.1805 190.332 89.9714C190.122 89.7623 189.956 89.5139 189.843 89.2404C189.729 88.9669 189.671 88.6738 189.671 88.3777C189.671 88.0817 189.729 87.7885 189.843 87.5151C189.956 87.2416 190.122 86.9932 190.332 86.784C190.541 86.5749 190.79 86.4092 191.064 86.2963C191.338 86.1834 191.631 86.1257 191.927 86.1263H377.445C378.041 86.1275 378.612 86.3653 379.034 86.7874C379.455 87.2095 379.691 87.7814 379.691 88.3777C379.691 88.974 379.455 89.546 379.034 89.9681C378.612 90.3901 378.041 90.6279 377.445 90.6292Z" fill="#F2F2F2"/>
<path id="Vector_3" d="M580.523 115.395H288.738C288.141 115.395 287.569 115.158 287.146 114.735C286.724 114.313 286.487 113.741 286.487 113.143C286.487 112.546 286.724 111.974 287.146 111.551C287.569 111.129 288.141 110.892 288.738 110.892H580.523C580.819 110.892 581.112 110.95 581.385 111.063C581.658 111.177 581.906 111.342 582.115 111.551C582.325 111.76 582.49 112.009 582.603 112.282C582.717 112.555 582.775 112.848 582.775 113.143C582.775 113.439 582.717 113.732 582.603 114.005C582.49 114.278 582.325 114.526 582.115 114.735C581.906 114.945 581.658 115.11 581.385 115.223C581.112 115.337 580.819 115.395 580.523 115.395Z" fill="#F2F2F2"/>
<path id="Vector_4" d="M378.345 140.161H192.827C192.23 140.161 191.658 139.923 191.235 139.501C190.813 139.079 190.576 138.506 190.576 137.909C190.576 137.312 190.813 136.739 191.235 136.317C191.658 135.895 192.23 135.658 192.827 135.658H378.345C378.942 135.658 379.515 135.895 379.937 136.317C380.359 136.739 380.597 137.312 380.597 137.909C380.597 138.506 380.359 139.079 379.937 139.501C379.515 139.923 378.942 140.161 378.345 140.161Z" fill="#F2F2F2"/>
<path id="Vector_5" d="M580.523 140.611H395.006C394.409 140.611 393.836 140.374 393.414 139.951C392.991 139.529 392.754 138.957 392.754 138.359C392.754 137.762 392.991 137.19 393.414 136.767C393.836 136.345 394.409 136.108 395.006 136.108H580.523C581.12 136.108 581.693 136.345 582.115 136.767C582.538 137.19 582.775 137.762 582.775 138.359C582.775 138.957 582.538 139.529 582.115 139.951C581.693 140.374 581.12 140.611 580.523 140.611Z" fill="#F2F2F2"/>
<path id="Vector_6" d="M378.795 164.926H193.278C192.681 164.926 192.108 164.689 191.686 164.267C191.264 163.845 191.026 163.272 191.026 162.675C191.026 162.078 191.264 161.505 191.686 161.083C192.108 160.661 192.681 160.423 193.278 160.423H378.795C379.393 160.423 379.965 160.661 380.387 161.083C380.81 161.505 381.047 162.078 381.047 162.675C381.047 163.272 380.81 163.845 380.387 164.267C379.965 164.689 379.393 164.926 378.795 164.926Z" fill="#F2F2F2"/>
<path id="Vector_7" d="M379.246 189.692H193.728C193.131 189.692 192.558 189.455 192.136 189.033C191.714 188.61 191.477 188.038 191.477 187.441C191.477 186.843 191.714 186.271 192.136 185.849C192.558 185.426 193.131 185.189 193.728 185.189H379.246C379.843 185.189 380.416 185.426 380.838 185.849C381.26 186.271 381.497 186.843 381.497 187.441C381.497 188.038 381.26 188.61 380.838 189.033C380.416 189.455 379.843 189.692 379.246 189.692Z" fill="#F2F2F2"/>
<path id="Vector_8" d="M463.449 91.0794H410.315C409.718 91.0794 409.146 90.8422 408.723 90.42C408.301 89.9978 408.064 89.4251 408.064 88.828C408.064 88.2309 408.301 87.6582 408.723 87.236C409.146 86.8138 409.718 86.5766 410.315 86.5766H463.449C464.046 86.5766 464.619 86.8138 465.041 87.236C465.463 87.6582 465.701 88.2309 465.701 88.828C465.701 89.4251 465.463 89.9978 465.041 90.42C464.619 90.8422 464.046 91.0794 463.449 91.0794Z" fill="#F2F2F2"/>
<path id="Vector_9" d="M463.449 164.926H410.315C409.718 164.926 409.146 164.689 408.723 164.267C408.301 163.845 408.064 163.272 408.064 162.675C408.064 162.078 408.301 161.505 408.723 161.083C409.146 160.661 409.718 160.423 410.315 160.423H463.449C464.046 160.423 464.619 160.661 465.041 161.083C465.463 161.505 465.701 162.078 465.701 162.675C465.701 163.272 465.463 163.845 465.041 164.267C464.619 164.689 464.046 164.926 463.449 164.926Z" fill="#F2F2F2"/>
<path id="Vector_10" d="M463.449 189.242H410.315C410.019 189.242 409.726 189.185 409.452 189.072C409.179 188.959 408.93 188.793 408.72 188.584C408.511 188.375 408.345 188.126 408.231 187.853C408.118 187.58 408.059 187.286 408.059 186.99C408.059 186.694 408.118 186.401 408.231 186.128C408.345 185.854 408.511 185.606 408.72 185.397C408.93 185.187 409.179 185.022 409.452 184.909C409.726 184.796 410.019 184.738 410.315 184.739H463.449C463.745 184.738 464.038 184.796 464.312 184.909C464.586 185.022 464.835 185.187 465.044 185.397C465.254 185.606 465.42 185.854 465.533 186.128C465.647 186.401 465.705 186.694 465.705 186.99C465.705 187.286 465.647 187.58 465.533 187.853C465.42 188.126 465.254 188.375 465.044 188.584C464.835 188.793 464.586 188.959 464.312 189.072C464.038 189.185 463.745 189.242 463.449 189.242Z" fill="#F2F2F2"/>
<path id="Vector_11" d="M552.606 189.242H499.472C498.876 189.24 498.304 189.003 497.883 188.581C497.462 188.159 497.225 187.587 497.225 186.99C497.225 186.394 497.462 185.822 497.883 185.4C498.304 184.978 498.876 184.74 499.472 184.739H552.606C552.902 184.738 553.195 184.796 553.469 184.909C553.742 185.022 553.991 185.187 554.201 185.397C554.41 185.606 554.577 185.854 554.69 186.128C554.803 186.401 554.862 186.694 554.862 186.99C554.862 187.286 554.803 187.58 554.69 187.853C554.577 188.126 554.41 188.375 554.201 188.584C553.991 188.793 553.742 188.959 553.469 189.072C553.195 189.185 552.902 189.242 552.606 189.242Z" fill="#F2F2F2"/>
<path id="Vector_12" d="M244.61 115.395H191.477C190.879 115.395 190.307 115.158 189.885 114.735C189.462 114.313 189.225 113.741 189.225 113.143C189.225 112.546 189.462 111.974 189.885 111.551C190.307 111.129 190.879 110.892 191.477 110.892H244.61C245.207 110.892 245.78 111.129 246.202 111.551C246.625 111.974 246.862 112.546 246.862 113.143C246.862 113.741 246.625 114.313 246.202 114.735C245.78 115.158 245.207 115.395 244.61 115.395Z" fill="#F2F2F2"/>
<path id="Vector_13" d="M377.67 455.361H192.152C191.555 455.361 190.982 455.123 190.56 454.701C190.138 454.279 189.901 453.706 189.901 453.109C189.901 452.512 190.138 451.939 190.56 451.517C190.982 451.095 191.555 450.858 192.152 450.858H377.67C378.267 450.858 378.84 451.095 379.262 451.517C379.684 451.939 379.921 452.512 379.921 453.109C379.921 453.706 379.684 454.279 379.262 454.701C378.84 455.123 378.267 455.361 377.67 455.361Z" fill="#F2F2F2"/>
<path id="Vector_14" d="M376.769 504.892H191.251C190.654 504.892 190.082 504.655 189.659 504.233C189.237 503.81 189 503.238 189 502.641C189 502.043 189.237 501.471 189.659 501.049C190.082 500.626 190.654 500.389 191.251 500.389H376.769C377.366 500.389 377.939 500.626 378.361 501.049C378.783 501.471 379.021 502.043 379.021 502.641C379.021 503.238 378.783 503.81 378.361 504.233C377.939 504.655 377.366 504.892 376.769 504.892Z" fill="#F2F2F2"/>
<path id="Vector_15" d="M377.219 529.658H191.702C191.406 529.658 191.112 529.601 190.839 529.488C190.565 529.375 190.316 529.209 190.107 529C189.897 528.791 189.731 528.542 189.617 528.269C189.504 527.996 189.446 527.702 189.446 527.406C189.446 527.11 189.504 526.817 189.617 526.544C189.731 526.27 189.897 526.022 190.107 525.813C190.316 525.604 190.565 525.438 190.839 525.325C191.112 525.212 191.406 525.154 191.702 525.155H377.219C377.516 525.154 377.809 525.212 378.082 525.325C378.356 525.438 378.605 525.604 378.814 525.813C379.024 526.022 379.19 526.27 379.304 526.544C379.417 526.817 379.476 527.11 379.476 527.406C379.476 527.702 379.417 527.996 379.304 528.269C379.19 528.542 379.024 528.791 378.814 529C378.605 529.209 378.356 529.375 378.082 529.488C377.809 529.601 377.516 529.658 377.219 529.658Z" fill="#F2F2F2"/>
<path id="Vector_16" d="M456.47 505.342H403.336C402.739 505.342 402.166 505.105 401.744 504.683C401.322 504.261 401.085 503.688 401.085 503.091C401.085 502.494 401.322 501.921 401.744 501.499C402.166 501.077 402.739 500.839 403.336 500.839H456.47C457.067 500.839 457.639 501.077 458.062 501.499C458.484 501.921 458.721 502.494 458.721 503.091C458.721 503.688 458.484 504.261 458.062 504.683C457.639 505.105 457.067 505.342 456.47 505.342Z" fill="#F2F2F2"/>
<path id="Vector_17" d="M456.47 529.658H403.336C402.739 529.658 402.166 529.421 401.744 528.998C401.322 528.576 401.085 528.003 401.085 527.406C401.085 526.809 401.322 526.236 401.744 525.814C402.166 525.392 402.739 525.155 403.336 525.155H456.47C457.067 525.155 457.639 525.392 458.062 525.814C458.484 526.236 458.721 526.809 458.721 527.406C458.721 528.003 458.484 528.576 458.062 528.998C457.639 529.421 457.067 529.658 456.47 529.658Z" fill="#F2F2F2"/>
<path id="Vector_18" d="M545.626 505.342H492.493C491.895 505.342 491.323 505.105 490.901 504.683C490.478 504.261 490.241 503.688 490.241 503.091C490.241 502.494 490.478 501.921 490.901 501.499C491.323 501.077 491.895 500.839 492.493 500.839H545.626C546.223 500.839 546.796 501.077 547.218 501.499C547.64 501.921 547.878 502.494 547.878 503.091C547.878 503.688 547.64 504.261 547.218 504.683C546.796 505.105 546.223 505.342 545.626 505.342Z" fill="#F2F2F2"/>
<path id="Vector_19" d="M580.749 480.126H288.963C288.366 480.126 287.794 479.889 287.371 479.467C286.949 479.045 286.712 478.472 286.712 477.875C286.712 477.278 286.949 476.705 287.371 476.283C287.794 475.861 288.366 475.623 288.963 475.623H580.749C581.346 475.623 581.918 475.861 582.341 476.283C582.763 476.705 583 477.278 583 477.875C583 478.472 582.763 479.045 582.341 479.467C581.918 479.889 581.346 480.126 580.749 480.126Z" fill="#F2F2F2"/>
<path id="Vector_20" d="M244.835 480.126H191.702C191.105 480.126 190.532 479.889 190.11 479.467C189.687 479.045 189.45 478.472 189.45 477.875C189.45 477.278 189.687 476.705 190.11 476.283C190.532 475.861 191.105 475.623 191.702 475.623H244.835C245.433 475.623 246.005 475.861 246.427 476.283C246.85 476.705 247.087 477.278 247.087 477.875C247.087 478.472 246.85 479.045 246.427 479.467C246.005 479.889 245.433 480.126 244.835 480.126Z" fill="#F2F2F2"/>
<path id="Vector_21" d="M580.749 554.874H288.963C288.667 554.874 288.374 554.817 288.1 554.704C287.827 554.591 287.578 554.425 287.368 554.216C287.159 554.007 286.993 553.758 286.879 553.485C286.766 553.212 286.707 552.918 286.707 552.622C286.707 552.326 286.766 552.033 286.879 551.76C286.993 551.486 287.159 551.238 287.368 551.029C287.578 550.82 287.827 550.654 288.1 550.541C288.374 550.428 288.667 550.37 288.963 550.371H580.749C581.346 550.371 581.918 550.608 582.341 551.03C582.763 551.453 583 552.025 583 552.622C583 553.219 582.763 553.792 582.341 554.214C581.918 554.637 581.346 554.874 580.749 554.874Z" fill="#F2F2F2"/>
<path id="Vector_22" d="M244.835 554.874H191.702C191.406 554.874 191.112 554.817 190.839 554.704C190.565 554.591 190.316 554.425 190.107 554.216C189.897 554.007 189.731 553.758 189.617 553.485C189.504 553.212 189.446 552.918 189.446 552.622C189.446 552.326 189.504 552.033 189.617 551.76C189.731 551.486 189.897 551.238 190.107 551.029C190.316 550.82 190.565 550.654 190.839 550.541C191.112 550.428 191.406 550.37 191.702 550.371H244.835C245.131 550.37 245.425 550.428 245.698 550.541C245.972 550.654 246.221 550.82 246.431 551.029C246.64 551.238 246.806 551.486 246.92 551.76C247.033 552.033 247.092 552.326 247.092 552.622C247.092 552.918 247.033 553.212 246.92 553.485C246.806 553.758 246.64 554.007 246.431 554.216C246.221 554.425 245.972 554.591 245.698 554.704C245.425 554.817 245.131 554.874 244.835 554.874Z" fill="#F2F2F2"/>
<path id="Vector_23" d="M332.863 250.187L348.466 265.79L294.062 320.195L293.532 320.725L294.062 321.255L348.016 375.21L332.863 390.363L261.888 320.275L332.863 250.187Z" fill="white" stroke="white" stroke-width="1.5"/>
<path id="Vector_24" d="M439.137 390.363L423.984 375.21L477.939 321.255L478.469 320.725L477.939 320.195L423.534 265.79L439.137 250.187L510.112 320.275L439.137 390.363Z" fill="#FDFFFD" stroke="white" stroke-width="1.5"/>
<path id="Vector_25" d="M30 34C34.9706 34 39 29.9706 39 25C39 20.0294 34.9706 16 30 16C25.0294 16 21 20.0294 21 25C21 29.9706 25.0294 34 30 34Z" fill="#1566A6"/>
<path id="Vector_26" d="M54 34C58.9706 34 63 29.9706 63 25C63 20.0294 58.9706 16 54 16C49.0294 16 45 20.0294 45 25C45 29.9706 49.0294 34 54 34Z" fill="#1566A6"/>
<path id="Vector_27" d="M78 34C82.9706 34 87 29.9706 87 25C87 20.0294 82.9706 16 78 16C73.0294 16 69 20.0294 69 25C69 29.9706 73.0294 34 78 34Z" fill="#1566A6"/>
<path id="Vector_28" opacity="0.1" d="M760 43H8V46H760V43Z" fill="black"/>
</g>
<defs>
<filter id="filter0_d" x="0" y="0" width="792" height="630" filterUnits="userSpaceOnUse" color-interpolation-filters="sRGB">
<feFlood flood-opacity="0" result="BackgroundImageFix"/>
<feColorMatrix in="SourceAlpha" type="matrix" values="0 0 0 0 0 0 0 0 0 0 0 0 0 0 0 0 0 0 127 0"/>
<feOffset dx="10" dy="10"/>
<feGaussianBlur stdDeviation="10"/>
<feColorMatrix type="matrix" values="0 0 0 0 0 0 0 0 0 0 0 0 0 0 0 0 0 0 0.25 0"/>
<feBlend mode="normal" in2="BackgroundImageFix" result="effect1_dropShadow"/>
<feBlend mode="normal" in="SourceGraphic" in2="effect1_dropShadow" result="shape"/>
</filter>
</defs>
</svg>
