<svg width="36" height="35" viewBox="0 0 36 35" fill="none" xmlns="http://www.w3.org/2000/svg">
<g id="wpf:mac-os">
<path id="Vector" d="M32.5835 25.1327C31.7724 26.915 31.3845 27.7119 30.3428 29.2869C28.8874 31.4865 26.8324 34.2313 24.292 34.2502C22.0322 34.269 21.449 32.7869 18.3822 32.8111C15.3154 32.826 14.6766 34.2771 12.4142 34.2542C9.87366 34.2313 7.92861 31.7585 6.47186 29.5629C2.39866 23.4042 1.96869 16.1862 4.48613 12.3456C6.26705 9.62231 9.0856 8.02308 11.7319 8.02308C14.427 8.02308 16.1211 9.49308 18.3497 9.49308C20.5117 9.49308 21.8288 8.01904 24.9457 8.01904C27.3031 8.01904 29.7961 9.29384 31.5771 11.4935C25.7501 14.6623 26.6968 22.9223 32.5835 25.1327ZM22.5802 5.56096C23.7141 4.11654 24.5741 2.07846 24.2621 0C22.412 0.125192 20.2486 1.29769 18.9844 2.81615C17.8397 4.19865 16.8902 6.25288 17.2605 8.23981C19.2788 8.30442 21.3676 7.11038 22.5802 5.56096Z" fill="#319AEE"/>
</g>
</svg>
